<svg xmlns="http://www.w3.org/2000/svg" xmlns:oryx="http://oryx-editor.org" id="_A3E68824-CA92-4951-8AFF-FCEF58C52F36" width="814" height="215" xmlns:xlink="http://www.w3.org/1999/xlink" xmlns:svg="http://www.w3.org/2000/svg"><defs><marker id="_14534537-4B92-4A51-969F-B4CB6F40B9E3start" refX="1" refY="5" markerUnits="userSpaceOnUse" markerWidth="17" markerHeight="11" orient="auto" fill="#000000" stroke="#000000"> 	  		<path id="_14534537-4B92-4A51-969F-B4CB6F40B9E3conditional" d="M 0 5 L 8 0 L 16 5 L 8 10 L 0 5" fill="white" stroke="#000000" stroke-width="1" display="none"/> 			<path id="_14534537-4B92-4A51-969F-B4CB6F40B9E3default" d="M 5 0 L 11 10" fill="white" stroke="#000000" stroke-width="1" display="none"/> 	  	</marker><marker id="_14534537-4B92-4A51-969F-B4CB6F40B9E3end" refX="15" refY="6" markerUnits="userSpaceOnUse" markerWidth="15" markerHeight="12" orient="auto" fill="#000000" stroke="#000000"> 	  		<path id="_14534537-4B92-4A51-969F-B4CB6F40B9E3frame2" d="M 0 1 L 15 6 L 0 11z" fill="#000000" stroke="#000000" stroke-linejoin="round" stroke-width="2"/> 	  	</marker><marker id="_315D0882-2269-48B8-A828-D9CEE9D7801Cstart" refX="1" refY="5" markerUnits="userSpaceOnUse" markerWidth="17" markerHeight="11" orient="auto" fill="#000000" stroke="#000000"> 	  		<path id="_315D0882-2269-48B8-A828-D9CEE9D7801Cconditional" d="M 0 5 L 8 0 L 16 5 L 8 10 L 0 5" fill="white" stroke="#000000" stroke-width="1" display="none"/> 			<path id="_315D0882-2269-48B8-A828-D9CEE9D7801Cdefault" d="M 5 0 L 11 10" fill="white" stroke="#000000" stroke-width="1" display="none"/> 	  	</marker><marker id="_315D0882-2269-48B8-A828-D9CEE9D7801Cend" refX="15" refY="6" markerUnits="userSpaceOnUse" markerWidth="15" markerHeight="12" orient="auto" fill="#000000" stroke="#000000"> 	  		<path id="_315D0882-2269-48B8-A828-D9CEE9D7801Cframe2" d="M 0 1 L 15 6 L 0 11z" fill="#000000" stroke="#000000" stroke-linejoin="round" stroke-width="2"/> 	  	</marker></defs><g stroke="none" font-family="Verdana, sans-serif" font-size-adjust="none" font-style="normal" font-variant="normal" font-weight="normal" line-heigth="normal" font-size="12"><g class="stencils" transform="translate(16, 16)"><g class="me"/><g class="children"><g id="_803CAD40-DBA4-46BE-B1CD-BEE791B4DCC1" bpmn2nodeid="processStartEvent"><g class="stencils" transform="translate(525, 115)"><g class="me"><g pointer-events="fill" id="_803CAD40-DBA4-46BE-B1CD-BEE791B4DCC1">        <defs id="_803CAD40-DBA4-46BE-B1CD-BEE791B4DCC1__803CAD40-DBA4-46BE-B1CD-BEE791B4DCC1_5"> 		<radialGradient id="_803CAD40-DBA4-46BE-B1CD-BEE791B4DCC1background" cx="10%" cy="10%" r="100%" fx="10%" fy="10%"> 			<stop offset="0%" stop-color="#ffffff" stop-opacity="1" id="_803CAD40-DBA4-46BE-B1CD-BEE791B4DCC1__803CAD40-DBA4-46BE-B1CD-BEE791B4DCC1_6"/> 			<stop id="_803CAD40-DBA4-46BE-B1CD-BEE791B4DCC1fill_el" offset="100%" stop-color="#9acd32" stop-opacity="1"/> 		</radialGradient> 	</defs> 	     <circle id="_803CAD40-DBA4-46BE-B1CD-BEE791B4DCC1bg_frame" cx="15" cy="15" r="15" stroke="#000000" fill="url(#_803CAD40-DBA4-46BE-B1CD-BEE791B4DCC1background) white" stroke-width="1" style="stroke-dasharray: 5.5, 3"/>      <circle id="_803CAD40-DBA4-46BE-B1CD-BEE791B4DCC1frame" cx="15" cy="15" r="15" stroke="#000000" fill="none" stroke-width="1" display="inherit"/>  	<text font-size="11" id="_803CAD40-DBA4-46BE-B1CD-BEE791B4DCC1text_name" x="15" y="32" oryx:align="top center" stroke="black" stroke-width="0pt" letter-spacing="-0.01px" fill="#000000" text-anchor="middle" transform="rotate(0 15 32)" visibility="inherit" oryx:fontSize="11"/>   </g></g><g class="children" style="overflow:hidden"/><g class="edge"/></g><g class="controls"><g class="dockers"/><g class="magnets" transform="translate(525, 115)"><g pointer-events="all" display="none" transform="translate(7, 7)"><circle cx="8" cy="8" r="4" stroke="none" fill="red" fill-opacity="0.3"/></g></g></g></g><g id="_BAE10421-7793-4515-8991-70504CF5783F" bpmn2nodeid="_8C406D20-5C3F-4C68-A028-9C92573543D3"><g class="stencils" transform="translate(600, 90)"><g class="me"><g pointer-events="fill" oryx:minimumSize="50 40" id="_BAE10421-7793-4515-8991-70504CF5783F">   	<defs id="_BAE10421-7793-4515-8991-70504CF5783F__BAE10421-7793-4515-8991-70504CF5783F_17"> 		<radialGradient id="_BAE10421-7793-4515-8991-70504CF5783Fbackground" cx="10%" cy="10%" r="100%" fx="10%" fy="10%"> 			<stop offset="0%" stop-color="#ffffff" stop-opacity="1" id="_BAE10421-7793-4515-8991-70504CF5783F__BAE10421-7793-4515-8991-70504CF5783F_18"/> 			<stop id="_BAE10421-7793-4515-8991-70504CF5783Ffill_el" offset="100%" stop-color="#fafad2" stop-opacity="1"/> 		</radialGradient> 		<radialGradient id="_BAE10421-7793-4515-8991-70504CF5783Fborderbackground" cx="10%" cy="10%" r="100%" fx="10%" fy="10%"> 			<stop offset="0%" stop-color="#ffffff" stop-opacity="1" id="_BAE10421-7793-4515-8991-70504CF5783F__BAE10421-7793-4515-8991-70504CF5783F_19"/> 			<stop id="_BAE10421-7793-4515-8991-70504CF5783Ffill_border" offset="100%" stop-color="#000000" stop-opacity="1" stroke="#000000"/> 		</radialGradient> 	</defs> 	 	<rect id="_BAE10421-7793-4515-8991-70504CF5783Ftext_frame" oryx:anchors="bottom top right left" x="1" y="1" width="94" height="79" rx="10" ry="10" stroke="none" stroke-width="0" fill="none"/> 	<rect id="_BAE10421-7793-4515-8991-70504CF5783Fbg_frame" oryx:resize="vertical horizontal" x="0" y="0" width="100" height="80" rx="10" ry="10" stroke="#000000" stroke-width="1" fill="url(#_BAE10421-7793-4515-8991-70504CF5783Fbackground) #ffffcc"/> 		<text font-size="12" id="_BAE10421-7793-4515-8991-70504CF5783Ftext_name" x="50" y="40" oryx:align="middle center" oryx:fittoelem="text_frame" stroke="black" text-anchor="middle" stroke-width="0pt" letter-spacing="-0.01px" fill="#000000" transform="rotate(0 50 40)" visibility="inherit" oryx:fontSize="12"><tspan x="50" y="40" dy="5" id="ext-gen604">tarefa</tspan></text>     <g id="_BAE10421-7793-4515-8991-70504CF5783FmanualTask" transform="scale(0.7,0.7) translate(8,8)" display="none">     	<path oryx:anchors="top left" id="_BAE10421-7793-4515-8991-70504CF5783Fframe" style="opacity:1;fill:none;fill-opacity:1;stroke-width:1" d="M0.5,3.751l4.083-3.25c0,0,11.166,0.083,12.083,0.083s-2.417,2.917-1.5,2.917     s11.667,0,12.584,0c1.166,1.708-0.168,3.167-0.834,3.667s0.875,1.917-1,4.417c-0.75,0.25,0.75,1.875-1.333,3.333     c-1.167,0.583,0.583,1.542-1.25,2.833c-1.167,0-20.833,0.083-20.833,0.083l-2-1.333V3.751z" stroke="#000000"/> 		<path id="_BAE10421-7793-4515-8991-70504CF5783Fframe2" oryx:anchors="top left" style="opacity:1;fill:none;stroke-width:2" d="M 13.5 7 L 27 7" stroke="#000000"/> 		<path id="_BAE10421-7793-4515-8991-70504CF5783Fframe3" oryx:anchors="top left" style="opacity:1;fill:none;stroke-width:2" d="M 13.5 11 L 26 11" stroke="#000000"/> 		<path id="_BAE10421-7793-4515-8991-70504CF5783Fframe4" oryx:anchors="top left" style="opacity:1;fill:none;stroke-width:1.5" d="M 14 14.5 L 25 14.5" stroke="#000000"/> 		<path id="_BAE10421-7793-4515-8991-70504CF5783Fframe5" oryx:anchors="top left" style="opacity:1;fill:none;stroke-width:1.5" d="M 8.2 3.1 L 15 3.1" stroke="#000000"/> 	</g> 	 	<g id="_BAE10421-7793-4515-8991-70504CF5783FbusinessRuleTask" transform="scale(0.7,0.7) translate(8,8)" display="none"> 		<rect id="_BAE10421-7793-4515-8991-70504CF5783Fframe6" oryx:anchors="top left" x="0" y="0" width="22" height="4" style="opacity:1;fill:#B3B1B3;fill-opacity:1;" stroke="#000000"/> 		<rect id="_BAE10421-7793-4515-8991-70504CF5783Fframe7" oryx:anchors="top left" x="0" y="4" style="opacity:1;fill:none;" width="22" height="12" stroke="#000000"/> 		<path id="_BAE10421-7793-4515-8991-70504CF5783Fframe8" oryx:anchors="top left" style="opacity:1;fill:none;" d="M 0 10 L 22 10" stroke="#000000"/> 		<path id="_BAE10421-7793-4515-8991-70504CF5783Fframe9" oryx:anchors="top left" style="opacity:1; fill:none;" d="M 7 4 L 7 16" stroke="#000000"/> 	</g> 	 	<g id="_BAE10421-7793-4515-8991-70504CF5783FscriptTask" transform="scale(0.7,0.7) translate(8,8)" display="none"> 		<path oryx:anchors="top left" id="_BAE10421-7793-4515-8991-70504CF5783Fframe10" style="opacity:1;fill:none;" stroke="#000000" d="M6.402,0.5h14.5c0,0-5.833,2.833-5.833,5.583s4.417,6,4.417,9.167    s-4.167,5.083-4.167,5.083H0.235c0,0,5-2.667,5-5s-4.583-6.75-4.583-9.25S6.402,0.5,6.402,0.5z"/> 		<path oryx:anchors="top left" id="_BAE10421-7793-4515-8991-70504CF5783Fframe11" style="opacity:1;fill:none;stroke-width:1.5" d="M 3.5 4.5 L 13.5 4.5" stroke="#000000"/> 		<path oryx:anchors="top left" id="_BAE10421-7793-4515-8991-70504CF5783Fframe12" style="opacity:1;fill:none;stroke-width:1.5" d="M 3.8 8.5 L 13.8 8.5" stroke="#000000"/> 		<path oryx:anchors="top left" id="_BAE10421-7793-4515-8991-70504CF5783Fframe13" style="opacity:1;fill:none;stroke-width:1.5" d="M 6.3 12.5 L 16.3 12.5" stroke="#000000"/> 		<path oryx:anchors="top left" id="_BAE10421-7793-4515-8991-70504CF5783Fframe14" style="opacity:1;fill:none;stroke-width:1.5" d="M 6.5 16.5 L 16.5 16.5" stroke="#000000"/> 	</g> 	 	<g id="_BAE10421-7793-4515-8991-70504CF5783FuserTask" transform="scale(0.7,0.7) translate(8,8)" display="inherit"> 		<path id="_BAE10421-7793-4515-8991-70504CF5783Fframe15" oryx:anchors="top left" style="opacity:1;fill:#F4F6F7" stroke="#000000" d="M0.585,24.167h24.083v-7.833c0,0-2.333-3.917-7.083-5.167h-9.25    c-4.417,1.333-7.833,5.75-7.833,5.75L0.585,24.167z"/> 		<path id="_BAE10421-7793-4515-8991-70504CF5783Fframe16" oryx:anchors="top left" style="opacity:1;fill:none" d="M 6 20 L 6 24" stroke="#000000"/> 		<path id="_BAE10421-7793-4515-8991-70504CF5783Fframe17" oryx:anchors="top left" style="opacity:1;fill:none" d="M 20 20 L 20 24" stroke="#000000"/> 		<circle id="_BAE10421-7793-4515-8991-70504CF5783Fframe18" oryx:anchors="top left" fill="black" cx="13.002" cy="5.916" r="5.417" stroke="#000000"/> 		<path id="_BAE10421-7793-4515-8991-70504CF5783Fframe19" oryx:anchors="top left" style="opacity:1;fill:#F0EFF0;" stroke="#000000" d="M8.043,7.083c0,0,2.814-2.426,5.376-1.807s4.624-0.693,4.624-0.693    c0.25,1.688,0.042,3.75-1.458,5.584c0,0,1.083,0.75,1.083,1.5s0.125,1.875-1,3s-5.5,1.25-6.75,0S8.668,12.834,8.668,12    s0.583-1.25,1.25-1.917C8.835,9.5,7.419,7.708,8.043,7.083z"/> 	</g> 	 	<g id="_BAE10421-7793-4515-8991-70504CF5783FserviceTask" transform="scale(0.7,0.7) translate(8,8)" display="none"> 		<polygon oryx:anchors="top left" id="_BAE10421-7793-4515-8991-70504CF5783Fframe20" style="opacity:1;fill:#ffffff" stroke="#000000" points="15.392,5.064 17.954,2.502 20.347,4.895 17.786,7.455     18.729,9.732 22.353,9.732 22.353,13.115 18.731,13.115 17.788,15.392 20.351,17.955 17.958,20.347 15.397,17.786 13.12,18.729     13.12,22.353 9.737,22.353 9.737,18.731 7.46,17.788 4.897,20.35 2.506,17.958 5.066,15.397 4.124,13.12 0.5,13.12 0.5,9.737     4.121,9.737 5.065,7.461 2.503,4.898 4.895,2.506 7.455,5.066 9.732,4.125 9.732,0.5 13.116,0.5 13.116,4.121 "/> 		<circle oryx:anchors="top left" id="_BAE10421-7793-4515-8991-70504CF5783Fframe21" style="opacity:1;fill:none" stroke="#000000" cx="11.427" cy="11.426" r="3.714"/> 		<polygon oryx:anchors="top left" id="_BAE10421-7793-4515-8991-70504CF5783Fframe22" style="opacity:1;fill:#ffffff" stroke="#000000" points="21.392,11.064 23.954,8.502 26.347,10.895 23.786,13.455     24.729,15.732 28.353,15.732 28.353,19.115 24.731,19.115 23.788,21.392 26.351,23.955 23.958,26.347 21.397,23.786 19.12,24.729     19.12,28.353 15.737,28.353 15.737,24.731 13.46,23.788 10.897,26.35 8.506,23.958 11.066,21.397 10.124,19.12 6.5,19.12     6.5,15.737 10.121,15.737 11.065,13.461 8.503,10.898 10.895,8.506 13.455,11.066 15.732,10.125 15.732,6.5 19.116,6.5     19.116,10.121 "/> 		<circle oryx:anchors="top left" id="_BAE10421-7793-4515-8991-70504CF5783Fframe23" style="opacity:1;fill:none;" stroke="#000000" cx="17.427" cy="17.426" r="3.714"/> 	</g> 	 	<g id="_BAE10421-7793-4515-8991-70504CF5783FsendTask" display="none"> 		<path id="_BAE10421-7793-4515-8991-70504CF5783Fstframe24" oryx:anchors="left top" stroke="#FFFFFF" fill="black" stroke-width="1" d="M8,11 L8,21 L24,21 L24,11 L16,17z"/> 		<path id="_BAE10421-7793-4515-8991-70504CF5783Fstframe25" oryx:anchors="left top" stroke="#FFFFFF" fill="black" stroke-width="1" d="M7,10 L16,17 L25 10z"/> 	</g> 	 	<g id="_BAE10421-7793-4515-8991-70504CF5783FreceiveTask" display="none"> 		<path id="_BAE10421-7793-4515-8991-70504CF5783Fframe26" oryx:anchors="left top" stroke="#000000" fill="none" stroke-width="1" d="M8,11 L8,21 L24,21 L24,11z M8,11 L16,17 L24,11"/> 	</g> 	 	<g id="_BAE10421-7793-4515-8991-70504CF5783Fnone" display="inherit"/>  	<g id="_BAE10421-7793-4515-8991-70504CF5783Fsequential" display="none">         <path oryx:anchors="bottom" fill="none" stroke="#000000" stroke-width="2" d="M46,76h10M46,72h10 M46,68h10" id="_BAE10421-7793-4515-8991-70504CF5783F__BAE10421-7793-4515-8991-70504CF5783F_20"/>     </g>   </g></g><g class="children" style="overflow:hidden"/><g class="edge"/></g><g class="controls"><g class="dockers"/><g class="magnets" transform="translate(600, 90)"><g pointer-events="all" display="none" transform="translate(-7, 12)"><circle cx="8" cy="8" r="4" stroke="none" fill="red" fill-opacity="0.3"/></g><g pointer-events="all" display="none" transform="translate(-7, 32)"><circle cx="8" cy="8" r="4" stroke="none" fill="red" fill-opacity="0.3"/></g><g pointer-events="all" display="none" transform="translate(-7, 52)"><circle cx="8" cy="8" r="4" stroke="none" fill="red" fill-opacity="0.3"/></g><g pointer-events="all" display="none" transform="translate(17, 71)"><circle cx="8" cy="8" r="4" stroke="none" fill="red" fill-opacity="0.3"/></g><g pointer-events="all" display="none" transform="translate(42, 71)"><circle cx="8" cy="8" r="4" stroke="none" fill="red" fill-opacity="0.3"/></g><g pointer-events="all" display="none" transform="translate(67, 71)"><circle cx="8" cy="8" r="4" stroke="none" fill="red" fill-opacity="0.3"/></g><g pointer-events="all" display="none" transform="translate(91, 12)"><circle cx="8" cy="8" r="4" stroke="none" fill="red" fill-opacity="0.3"/></g><g pointer-events="all" display="none" transform="translate(91, 32)"><circle cx="8" cy="8" r="4" stroke="none" fill="red" fill-opacity="0.3"/></g><g pointer-events="all" display="none" transform="translate(91, 52)"><circle cx="8" cy="8" r="4" stroke="none" fill="red" fill-opacity="0.3"/></g><g pointer-events="all" display="none" transform="translate(17, -7)"><circle cx="8" cy="8" r="4" stroke="none" fill="red" fill-opacity="0.3"/></g><g pointer-events="all" display="none" transform="translate(42, -7)"><circle cx="8" cy="8" r="4" stroke="none" fill="red" fill-opacity="0.3"/></g><g pointer-events="all" display="none" transform="translate(67, -7)"><circle cx="8" cy="8" r="4" stroke="none" fill="red" fill-opacity="0.3"/></g><g pointer-events="all" display="none" transform="translate(42, 32)"><circle cx="8" cy="8" r="4" stroke="none" fill="red" fill-opacity="0.3"/></g></g></g></g><g id="_FC66BFC2-37A1-4E04-9803-3E9AEFA5743B" bpmn2nodeid="_F3A21A80-B707-4B09-A87F-1826AD314138"><g class="stencils" transform="translate(745, 116)"><g class="me"><g pointer-events="fill" id="_FC66BFC2-37A1-4E04-9803-3E9AEFA5743B">      <defs id="_FC66BFC2-37A1-4E04-9803-3E9AEFA5743B__FC66BFC2-37A1-4E04-9803-3E9AEFA5743B_5"> 		<radialGradient id="_FC66BFC2-37A1-4E04-9803-3E9AEFA5743Bbackground" cx="10%" cy="10%" r="100%" fx="10%" fy="10%"> 			<stop offset="0%" stop-color="#ffffff" stop-opacity="1" id="_FC66BFC2-37A1-4E04-9803-3E9AEFA5743B__FC66BFC2-37A1-4E04-9803-3E9AEFA5743B_6"/> 			<stop id="_FC66BFC2-37A1-4E04-9803-3E9AEFA5743Bfill_el" offset="100%" stop-color="#ff6347" stop-opacity="1"/> 		</radialGradient> 	</defs> 	     <circle id="_FC66BFC2-37A1-4E04-9803-3E9AEFA5743Bbg_frame" cx="14" cy="14" r="14" stroke="#000000" fill="url(#_FC66BFC2-37A1-4E04-9803-3E9AEFA5743Bbackground) white" stroke-width="3"/> 	<text font-size="11" id="_FC66BFC2-37A1-4E04-9803-3E9AEFA5743Btext_name" x="14" y="30" oryx:align="top center" stroke="black" stroke-width="0pt" letter-spacing="-0.01px" fill="#000000" text-anchor="middle" transform="rotate(0 14 30)" visibility="inherit" oryx:fontSize="11"/>   </g></g><g class="children" style="overflow:hidden"/><g class="edge"/></g><g class="controls"><g class="dockers"/><g class="magnets" transform="translate(745, 116)"><g pointer-events="all" display="none" transform="translate(6, 6)"><circle cx="8" cy="8" r="4" stroke="none" fill="red" fill-opacity="0.3"/></g></g></g></g></g><g class="edge"><g id="_14534537-4B92-4A51-969F-B4CB6F40B9E3" bpmn2nodeid="_1910442C-E7CC-4550-B3E4-B690CCAC3E9B"><g class="stencils"><g class="me"><g pointer-events="painted" bpmn2nodeid="_D72B80BC-167D-4801-979D-9A7997DC0761"><path id="_14534537-4B92-4A51-969F-B4CB6F40B9E3_1" d="M555.609375 130L599.15625 130 " stroke="#000000" fill="none" stroke-width="2" stroke-linecap="round" stroke-linejoin="round" marker-start="url(#_14534537-4B92-4A51-969F-B4CB6F40B9E3start)" marker-end="url(#_14534537-4B92-4A51-969F-B4CB6F40B9E3end)"/></g><text id="_14534537-4B92-4A51-969F-B4CB6F40B9E3text_name" font-size="12" x="569.609375" y="116" oryx:edgePosition="startTop" stroke-width="0pt" letter-spacing="-0.01px" fill="#000000" text-anchor="start" transform="rotate(360 555.609375 130)" visibility="inherit" oryx:fontSize="12"/></g><g class="children" style="overflow:hidden"/><g class="edge"/></g><g class="controls"><g class="dockers"/><g class="magnets"/></g></g><g id="_315D0882-2269-48B8-A828-D9CEE9D7801C" bpmn2nodeid="_7EE4BBEA-7B33-441D-9D46-FBA97EB4B602"><g class="stencils"><g class="me"><g pointer-events="painted" bpmn2nodeid="_2FAB5F04-E097-458D-AE7B-5084A9AAE2B4"><path id="_315D0882-2269-48B8-A828-D9CEE9D7801C_1" d="M700.390625 130L744.375 130 " stroke="#000000" fill="none" stroke-width="2" stroke-linecap="round" stroke-linejoin="round" marker-start="url(#_315D0882-2269-48B8-A828-D9CEE9D7801Cstart)" marker-end="url(#_315D0882-2269-48B8-A828-D9CEE9D7801Cend)"/></g><text id="_315D0882-2269-48B8-A828-D9CEE9D7801Ctext_name" font-size="12" x="714.390625" y="116" oryx:edgePosition="startTop" stroke-width="0pt" letter-spacing="-0.01px" fill="#000000" text-anchor="start" transform="rotate(360 700.390625 130)" visibility="inherit" oryx:fontSize="12"/></g><g class="children" style="overflow:hidden"/><g class="edge"/></g><g class="controls"><g class="dockers"/><g class="magnets"/></g></g></g><text id="_47F4DC43-846E-4F55-812D-55B58423CCED" style="stroke-width:1;fill:rgb(177,194,214);font-family:arial;font-weight:bold" font-size="12" onclick="ORYX.Plugins.CanvasTitle.openTextualAnalysis()" onmouseover="ORYX.Plugins.CanvasTitle.addToolTip('_47F4DC43-846E-4F55-812D-55B58423CCED')" transform="translate(10, 20)">escalacao v.1.0 (SIM.escalacao)</text></g></g></svg>