<svg xmlns="http://www.w3.org/2000/svg" xmlns:oryx="http://oryx-editor.org" id="_54D717FF-DCB6-4230-A066-323896A4EEB7" width="564" height="265" xmlns:xlink="http://www.w3.org/1999/xlink" xmlns:svg="http://www.w3.org/2000/svg"><defs><marker id="_A50DCEF0-0072-481E-8561-68322DE7897Bstart" refX="1" refY="5" markerUnits="userSpaceOnUse" markerWidth="17" markerHeight="11" orient="auto" fill="#000000" stroke="#000000"> 	  		<path id="_A50DCEF0-0072-481E-8561-68322DE7897Bconditional" d="M 0 5 L 8 0 L 16 5 L 8 10 L 0 5" fill="white" stroke="#000000" stroke-width="1" display="none"/> 			<path id="_A50DCEF0-0072-481E-8561-68322DE7897Bdefault" d="M 5 0 L 11 10" fill="white" stroke="#000000" stroke-width="1" display="none"/> 	  	</marker><marker id="_A50DCEF0-0072-481E-8561-68322DE7897Bend" refX="15" refY="6" markerUnits="userSpaceOnUse" markerWidth="15" markerHeight="12" orient="auto" fill="#000000" stroke="#000000"> 	  		<path id="_A50DCEF0-0072-481E-8561-68322DE7897Bframe2" d="M 0 1 L 15 6 L 0 11z" fill="#000000" stroke="#000000" stroke-linejoin="round" stroke-width="2"/> 	  	</marker><marker id="_7C631D4B-4F7E-491F-A32D-DD3C4DD0D056start" refX="1" refY="5" markerUnits="userSpaceOnUse" markerWidth="17" markerHeight="11" orient="auto" fill="#000000" stroke="#000000"> 	  		<path id="_7C631D4B-4F7E-491F-A32D-DD3C4DD0D056conditional" d="M 0 5 L 8 0 L 16 5 L 8 10 L 0 5" fill="white" stroke="#000000" stroke-width="1" display="none"/> 			<path id="_7C631D4B-4F7E-491F-A32D-DD3C4DD0D056default" d="M 5 0 L 11 10" fill="white" stroke="#000000" stroke-width="1" display="none"/> 	  	</marker><marker id="_7C631D4B-4F7E-491F-A32D-DD3C4DD0D056end" refX="15" refY="6" markerUnits="userSpaceOnUse" markerWidth="15" markerHeight="12" orient="auto" fill="#000000" stroke="#000000"> 	  		<path id="_7C631D4B-4F7E-491F-A32D-DD3C4DD0D056frame2" d="M 0 1 L 15 6 L 0 11z" fill="#000000" stroke="#000000" stroke-linejoin="round" stroke-width="2"/> 	  	</marker><marker id="_1F2DDF62-307C-460A-9052-A846FF878BB9start" refX="1" refY="5" markerUnits="userSpaceOnUse" markerWidth="17" markerHeight="11" orient="auto" fill="#000000" stroke="#000000"> 	  		<path id="_1F2DDF62-307C-460A-9052-A846FF878BB9conditional" d="M 0 5 L 8 0 L 16 5 L 8 10 L 0 5" fill="white" stroke="#000000" stroke-width="1" display="none"/> 			<path id="_1F2DDF62-307C-460A-9052-A846FF878BB9default" d="M 5 0 L 11 10" fill="white" stroke="#000000" stroke-width="1" display="none"/> 	  	</marker><marker id="_1F2DDF62-307C-460A-9052-A846FF878BB9end" refX="15" refY="6" markerUnits="userSpaceOnUse" markerWidth="15" markerHeight="12" orient="auto" fill="#000000" stroke="#000000"> 	  		<path id="_1F2DDF62-307C-460A-9052-A846FF878BB9frame2" d="M 0 1 L 15 6 L 0 11z" fill="#000000" stroke="#000000" stroke-linejoin="round" stroke-width="2"/> 	  	</marker></defs><g stroke="none" font-family="Verdana, sans-serif" font-size-adjust="none" font-style="normal" font-variant="normal" font-weight="normal" line-heigth="normal" font-size="12"><g class="stencils" transform="translate(16, 16)"><g class="me"/><g class="children"><g id="_C46C2D5D-FEEA-492A-BFB5-BBCDA0516ADF" bpmn2nodeid="processStartEvent"><g class="stencils" transform="translate(120, 165)"><g class="me"><g pointer-events="fill" id="_C46C2D5D-FEEA-492A-BFB5-BBCDA0516ADF">        <defs id="_C46C2D5D-FEEA-492A-BFB5-BBCDA0516ADF__C46C2D5D-FEEA-492A-BFB5-BBCDA0516ADF_5"> 		<radialGradient id="_C46C2D5D-FEEA-492A-BFB5-BBCDA0516ADFbackground" cx="10%" cy="10%" r="100%" fx="10%" fy="10%"> 			<stop offset="0%" stop-color="#ffffff" stop-opacity="1" id="_C46C2D5D-FEEA-492A-BFB5-BBCDA0516ADF__C46C2D5D-FEEA-492A-BFB5-BBCDA0516ADF_6"/> 			<stop id="_C46C2D5D-FEEA-492A-BFB5-BBCDA0516ADFfill_el" offset="100%" stop-color="#9acd32" stop-opacity="1"/> 		</radialGradient> 	</defs> 	     <circle id="_C46C2D5D-FEEA-492A-BFB5-BBCDA0516ADFbg_frame" cx="15" cy="15" r="15" stroke="#000000" fill="url(#_C46C2D5D-FEEA-492A-BFB5-BBCDA0516ADFbackground) white" stroke-width="1" style="stroke-dasharray: 5.5, 3"/>      <circle id="_C46C2D5D-FEEA-492A-BFB5-BBCDA0516ADFframe" cx="15" cy="15" r="15" stroke="#000000" fill="none" stroke-width="1" display="inherit"/>  	<text font-size="11" id="_C46C2D5D-FEEA-492A-BFB5-BBCDA0516ADFtext_name" x="15" y="32" oryx:align="top center" stroke="black" stroke-width="0pt" letter-spacing="-0.01px" fill="#000000" text-anchor="middle" transform="rotate(0 15 32)" visibility="inherit" oryx:fontSize="11"/>   </g></g><g class="children" style="overflow:hidden"/><g class="edge"/></g><g class="controls"><g class="dockers"/><g class="magnets" transform="translate(120, 165)"><g pointer-events="all" display="none" transform="translate(7, 7)"><circle cx="8" cy="8" r="4" stroke="none" fill="red" fill-opacity="0.3"/></g></g></g></g><g id="_89E7D184-B81F-4F3C-9D85-F777E55FA7A1" bpmn2nodeid="_E97DBDC8-F27B-4914-AD1F-0A538E4FD87F"><g class="stencils" transform="translate(495, 166)"><g class="me"><g pointer-events="fill" id="_89E7D184-B81F-4F3C-9D85-F777E55FA7A1">      <defs id="_89E7D184-B81F-4F3C-9D85-F777E55FA7A1__89E7D184-B81F-4F3C-9D85-F777E55FA7A1_5"> 		<radialGradient id="_89E7D184-B81F-4F3C-9D85-F777E55FA7A1background" cx="10%" cy="10%" r="100%" fx="10%" fy="10%"> 			<stop offset="0%" stop-color="#ffffff" stop-opacity="1" id="_89E7D184-B81F-4F3C-9D85-F777E55FA7A1__89E7D184-B81F-4F3C-9D85-F777E55FA7A1_6"/> 			<stop id="_89E7D184-B81F-4F3C-9D85-F777E55FA7A1fill_el" offset="100%" stop-color="#ff6347" stop-opacity="1"/> 		</radialGradient> 	</defs> 	     <circle id="_89E7D184-B81F-4F3C-9D85-F777E55FA7A1bg_frame" cx="14" cy="14" r="14" stroke="#000000" fill="url(#_89E7D184-B81F-4F3C-9D85-F777E55FA7A1background) white" stroke-width="3"/> 	<text font-size="11" id="_89E7D184-B81F-4F3C-9D85-F777E55FA7A1text_name" x="14" y="30" oryx:align="top center" stroke="black" stroke-width="0pt" letter-spacing="-0.01px" fill="#000000" text-anchor="middle" transform="rotate(0 14 30)" visibility="inherit" oryx:fontSize="11"/>   </g></g><g class="children" style="overflow:hidden"/><g class="edge"/></g><g class="controls"><g class="dockers"/><g class="magnets" transform="translate(495, 166)"><g pointer-events="all" display="none" transform="translate(6, 6)"><circle cx="8" cy="8" r="4" stroke="none" fill="red" fill-opacity="0.3"/></g></g></g></g><g id="_7619DFE0-CFFD-4E81-BA85-61F3156A1482" bpmn2nodeid="_1922AAC1-C932-4B8E-9B7D-CF0FC63C72EC"><g class="stencils" transform="translate(195, 140)"><g class="me"><g pointer-events="fill" oryx:minimumSize="50 40" id="_7619DFE0-CFFD-4E81-BA85-61F3156A1482">   	<defs id="_7619DFE0-CFFD-4E81-BA85-61F3156A1482__7619DFE0-CFFD-4E81-BA85-61F3156A1482_17"> 		<radialGradient id="_7619DFE0-CFFD-4E81-BA85-61F3156A1482background" cx="10%" cy="10%" r="100%" fx="10%" fy="10%"> 			<stop offset="0%" stop-color="#ffffff" stop-opacity="1" id="_7619DFE0-CFFD-4E81-BA85-61F3156A1482__7619DFE0-CFFD-4E81-BA85-61F3156A1482_18"/> 			<stop id="_7619DFE0-CFFD-4E81-BA85-61F3156A1482fill_el" offset="100%" stop-color="#fafad2" stop-opacity="1"/> 		</radialGradient> 		<radialGradient id="_7619DFE0-CFFD-4E81-BA85-61F3156A1482borderbackground" cx="10%" cy="10%" r="100%" fx="10%" fy="10%"> 			<stop offset="0%" stop-color="#ffffff" stop-opacity="1" id="_7619DFE0-CFFD-4E81-BA85-61F3156A1482__7619DFE0-CFFD-4E81-BA85-61F3156A1482_19"/> 			<stop id="_7619DFE0-CFFD-4E81-BA85-61F3156A1482fill_border" offset="100%" stop-color="#000000" stop-opacity="1" stroke="#000000"/> 		</radialGradient> 	</defs> 	 	<rect id="_7619DFE0-CFFD-4E81-BA85-61F3156A1482text_frame" oryx:anchors="bottom top right left" x="1" y="1" width="94" height="79" rx="10" ry="10" stroke="none" stroke-width="0" fill="none"/> 	<rect id="_7619DFE0-CFFD-4E81-BA85-61F3156A1482bg_frame" oryx:resize="vertical horizontal" x="0" y="0" width="100" height="80" rx="10" ry="10" stroke="#000000" stroke-width="1" fill="url(#_7619DFE0-CFFD-4E81-BA85-61F3156A1482background) #ffffcc"/> 		<text font-size="12" id="_7619DFE0-CFFD-4E81-BA85-61F3156A1482text_name" x="50" y="40" oryx:align="middle center" oryx:fittoelem="text_frame" stroke="black" text-anchor="middle" stroke-width="0pt" letter-spacing="-0.01px" fill="#000000" transform="rotate(0 50 40)" visibility="inherit" oryx:fontSize="12"><tspan x="50" y="40" dy="5">Responder</tspan></text>     <g id="_7619DFE0-CFFD-4E81-BA85-61F3156A1482manualTask" transform="scale(0.7,0.7) translate(8,8)" display="none">     	<path oryx:anchors="top left" id="_7619DFE0-CFFD-4E81-BA85-61F3156A1482frame" style="opacity:1;fill:none;fill-opacity:1;stroke-width:1" d="M0.5,3.751l4.083-3.25c0,0,11.166,0.083,12.083,0.083s-2.417,2.917-1.5,2.917     s11.667,0,12.584,0c1.166,1.708-0.168,3.167-0.834,3.667s0.875,1.917-1,4.417c-0.75,0.25,0.75,1.875-1.333,3.333     c-1.167,0.583,0.583,1.542-1.25,2.833c-1.167,0-20.833,0.083-20.833,0.083l-2-1.333V3.751z" stroke="#000000"/> 		<path id="_7619DFE0-CFFD-4E81-BA85-61F3156A1482frame2" oryx:anchors="top left" style="opacity:1;fill:none;stroke-width:2" d="M 13.5 7 L 27 7" stroke="#000000"/> 		<path id="_7619DFE0-CFFD-4E81-BA85-61F3156A1482frame3" oryx:anchors="top left" style="opacity:1;fill:none;stroke-width:2" d="M 13.5 11 L 26 11" stroke="#000000"/> 		<path id="_7619DFE0-CFFD-4E81-BA85-61F3156A1482frame4" oryx:anchors="top left" style="opacity:1;fill:none;stroke-width:1.5" d="M 14 14.5 L 25 14.5" stroke="#000000"/> 		<path id="_7619DFE0-CFFD-4E81-BA85-61F3156A1482frame5" oryx:anchors="top left" style="opacity:1;fill:none;stroke-width:1.5" d="M 8.2 3.1 L 15 3.1" stroke="#000000"/> 	</g> 	 	<g id="_7619DFE0-CFFD-4E81-BA85-61F3156A1482businessRuleTask" transform="scale(0.7,0.7) translate(8,8)" display="none"> 		<rect id="_7619DFE0-CFFD-4E81-BA85-61F3156A1482frame6" oryx:anchors="top left" x="0" y="0" width="22" height="4" style="opacity:1;fill:#B3B1B3;fill-opacity:1;" stroke="#000000"/> 		<rect id="_7619DFE0-CFFD-4E81-BA85-61F3156A1482frame7" oryx:anchors="top left" x="0" y="4" style="opacity:1;fill:none;" width="22" height="12" stroke="#000000"/> 		<path id="_7619DFE0-CFFD-4E81-BA85-61F3156A1482frame8" oryx:anchors="top left" style="opacity:1;fill:none;" d="M 0 10 L 22 10" stroke="#000000"/> 		<path id="_7619DFE0-CFFD-4E81-BA85-61F3156A1482frame9" oryx:anchors="top left" style="opacity:1; fill:none;" d="M 7 4 L 7 16" stroke="#000000"/> 	</g> 	 	<g id="_7619DFE0-CFFD-4E81-BA85-61F3156A1482scriptTask" transform="scale(0.7,0.7) translate(8,8)" display="none"> 		<path oryx:anchors="top left" id="_7619DFE0-CFFD-4E81-BA85-61F3156A1482frame10" style="opacity:1;fill:none;" stroke="#000000" d="M6.402,0.5h14.5c0,0-5.833,2.833-5.833,5.583s4.417,6,4.417,9.167    s-4.167,5.083-4.167,5.083H0.235c0,0,5-2.667,5-5s-4.583-6.75-4.583-9.25S6.402,0.5,6.402,0.5z"/> 		<path oryx:anchors="top left" id="_7619DFE0-CFFD-4E81-BA85-61F3156A1482frame11" style="opacity:1;fill:none;stroke-width:1.5" d="M 3.5 4.5 L 13.5 4.5" stroke="#000000"/> 		<path oryx:anchors="top left" id="_7619DFE0-CFFD-4E81-BA85-61F3156A1482frame12" style="opacity:1;fill:none;stroke-width:1.5" d="M 3.8 8.5 L 13.8 8.5" stroke="#000000"/> 		<path oryx:anchors="top left" id="_7619DFE0-CFFD-4E81-BA85-61F3156A1482frame13" style="opacity:1;fill:none;stroke-width:1.5" d="M 6.3 12.5 L 16.3 12.5" stroke="#000000"/> 		<path oryx:anchors="top left" id="_7619DFE0-CFFD-4E81-BA85-61F3156A1482frame14" style="opacity:1;fill:none;stroke-width:1.5" d="M 6.5 16.5 L 16.5 16.5" stroke="#000000"/> 	</g> 	 	<g id="_7619DFE0-CFFD-4E81-BA85-61F3156A1482userTask" transform="scale(0.7,0.7) translate(8,8)" display="inherit"> 		<path id="_7619DFE0-CFFD-4E81-BA85-61F3156A1482frame15" oryx:anchors="top left" style="opacity:1;fill:#F4F6F7" stroke="#000000" d="M0.585,24.167h24.083v-7.833c0,0-2.333-3.917-7.083-5.167h-9.25    c-4.417,1.333-7.833,5.75-7.833,5.75L0.585,24.167z"/> 		<path id="_7619DFE0-CFFD-4E81-BA85-61F3156A1482frame16" oryx:anchors="top left" style="opacity:1;fill:none" d="M 6 20 L 6 24" stroke="#000000"/> 		<path id="_7619DFE0-CFFD-4E81-BA85-61F3156A1482frame17" oryx:anchors="top left" style="opacity:1;fill:none" d="M 20 20 L 20 24" stroke="#000000"/> 		<circle id="_7619DFE0-CFFD-4E81-BA85-61F3156A1482frame18" oryx:anchors="top left" fill="black" cx="13.002" cy="5.916" r="5.417" stroke="#000000"/> 		<path id="_7619DFE0-CFFD-4E81-BA85-61F3156A1482frame19" oryx:anchors="top left" style="opacity:1;fill:#F0EFF0;" stroke="#000000" d="M8.043,7.083c0,0,2.814-2.426,5.376-1.807s4.624-0.693,4.624-0.693    c0.25,1.688,0.042,3.75-1.458,5.584c0,0,1.083,0.75,1.083,1.5s0.125,1.875-1,3s-5.5,1.25-6.75,0S8.668,12.834,8.668,12    s0.583-1.25,1.25-1.917C8.835,9.5,7.419,7.708,8.043,7.083z"/> 	</g> 	 	<g id="_7619DFE0-CFFD-4E81-BA85-61F3156A1482serviceTask" transform="scale(0.7,0.7) translate(8,8)" display="none"> 		<polygon oryx:anchors="top left" id="_7619DFE0-CFFD-4E81-BA85-61F3156A1482frame20" style="opacity:1;fill:#ffffff" stroke="#000000" points="15.392,5.064 17.954,2.502 20.347,4.895 17.786,7.455     18.729,9.732 22.353,9.732 22.353,13.115 18.731,13.115 17.788,15.392 20.351,17.955 17.958,20.347 15.397,17.786 13.12,18.729     13.12,22.353 9.737,22.353 9.737,18.731 7.46,17.788 4.897,20.35 2.506,17.958 5.066,15.397 4.124,13.12 0.5,13.12 0.5,9.737     4.121,9.737 5.065,7.461 2.503,4.898 4.895,2.506 7.455,5.066 9.732,4.125 9.732,0.5 13.116,0.5 13.116,4.121 "/> 		<circle oryx:anchors="top left" id="_7619DFE0-CFFD-4E81-BA85-61F3156A1482frame21" style="opacity:1;fill:none" stroke="#000000" cx="11.427" cy="11.426" r="3.714"/> 		<polygon oryx:anchors="top left" id="_7619DFE0-CFFD-4E81-BA85-61F3156A1482frame22" style="opacity:1;fill:#ffffff" stroke="#000000" points="21.392,11.064 23.954,8.502 26.347,10.895 23.786,13.455     24.729,15.732 28.353,15.732 28.353,19.115 24.731,19.115 23.788,21.392 26.351,23.955 23.958,26.347 21.397,23.786 19.12,24.729     19.12,28.353 15.737,28.353 15.737,24.731 13.46,23.788 10.897,26.35 8.506,23.958 11.066,21.397 10.124,19.12 6.5,19.12     6.5,15.737 10.121,15.737 11.065,13.461 8.503,10.898 10.895,8.506 13.455,11.066 15.732,10.125 15.732,6.5 19.116,6.5     19.116,10.121 "/> 		<circle oryx:anchors="top left" id="_7619DFE0-CFFD-4E81-BA85-61F3156A1482frame23" style="opacity:1;fill:none;" stroke="#000000" cx="17.427" cy="17.426" r="3.714"/> 	</g> 	 	<g id="_7619DFE0-CFFD-4E81-BA85-61F3156A1482sendTask" display="none"> 		<path id="_7619DFE0-CFFD-4E81-BA85-61F3156A1482stframe24" oryx:anchors="left top" stroke="#FFFFFF" fill="black" stroke-width="1" d="M8,11 L8,21 L24,21 L24,11 L16,17z"/> 		<path id="_7619DFE0-CFFD-4E81-BA85-61F3156A1482stframe25" oryx:anchors="left top" stroke="#FFFFFF" fill="black" stroke-width="1" d="M7,10 L16,17 L25 10z"/> 	</g> 	 	<g id="_7619DFE0-CFFD-4E81-BA85-61F3156A1482receiveTask" display="none"> 		<path id="_7619DFE0-CFFD-4E81-BA85-61F3156A1482frame26" oryx:anchors="left top" stroke="#000000" fill="none" stroke-width="1" d="M8,11 L8,21 L24,21 L24,11z M8,11 L16,17 L24,11"/> 	</g> 	 	<g id="_7619DFE0-CFFD-4E81-BA85-61F3156A1482none" display="inherit"/>  	<g id="_7619DFE0-CFFD-4E81-BA85-61F3156A1482sequential" display="none">         <path oryx:anchors="bottom" fill="none" stroke="#000000" stroke-width="2" d="M46,76h10M46,72h10 M46,68h10" id="_7619DFE0-CFFD-4E81-BA85-61F3156A1482__7619DFE0-CFFD-4E81-BA85-61F3156A1482_20"/>     </g>   </g></g><g class="children" style="overflow:hidden"/><g class="edge"/></g><g class="controls"><g class="dockers"/><g class="magnets" transform="translate(195, 140)"><g pointer-events="all" display="none" transform="translate(-7, 12)"><circle cx="8" cy="8" r="4" stroke="none" fill="red" fill-opacity="0.3"/></g><g pointer-events="all" display="none" transform="translate(-7, 32)"><circle cx="8" cy="8" r="4" stroke="none" fill="red" fill-opacity="0.3"/></g><g pointer-events="all" display="none" transform="translate(-7, 52)"><circle cx="8" cy="8" r="4" stroke="none" fill="red" fill-opacity="0.3"/></g><g pointer-events="all" display="none" transform="translate(17, 71)"><circle cx="8" cy="8" r="4" stroke="none" fill="red" fill-opacity="0.3"/></g><g pointer-events="all" display="none" transform="translate(42, 71)"><circle cx="8" cy="8" r="4" stroke="none" fill="red" fill-opacity="0.3"/></g><g pointer-events="all" display="none" transform="translate(67, 71)"><circle cx="8" cy="8" r="4" stroke="none" fill="red" fill-opacity="0.3"/></g><g pointer-events="all" display="none" transform="translate(91, 12)"><circle cx="8" cy="8" r="4" stroke="none" fill="red" fill-opacity="0.3"/></g><g pointer-events="all" display="none" transform="translate(91, 32)"><circle cx="8" cy="8" r="4" stroke="none" fill="red" fill-opacity="0.3"/></g><g pointer-events="all" display="none" transform="translate(91, 52)"><circle cx="8" cy="8" r="4" stroke="none" fill="red" fill-opacity="0.3"/></g><g pointer-events="all" display="none" transform="translate(17, -7)"><circle cx="8" cy="8" r="4" stroke="none" fill="red" fill-opacity="0.3"/></g><g pointer-events="all" display="none" transform="translate(42, -7)"><circle cx="8" cy="8" r="4" stroke="none" fill="red" fill-opacity="0.3"/></g><g pointer-events="all" display="none" transform="translate(67, -7)"><circle cx="8" cy="8" r="4" stroke="none" fill="red" fill-opacity="0.3"/></g><g pointer-events="all" display="none" transform="translate(42, 32)"><circle cx="8" cy="8" r="4" stroke="none" fill="red" fill-opacity="0.3"/></g></g></g></g><g id="_4281E148-2C64-4C12-A94C-409A1A823B42" bpmn2nodeid="_B858D905-4C49-46D3-B36E-72C29D75D368"><g class="stencils" transform="translate(360, 140)"><g class="me"><g pointer-events="fill" oryx:minimumSize="50 40" id="_4281E148-2C64-4C12-A94C-409A1A823B42">   	<defs id="_4281E148-2C64-4C12-A94C-409A1A823B42__4281E148-2C64-4C12-A94C-409A1A823B42_17"> 		<radialGradient id="_4281E148-2C64-4C12-A94C-409A1A823B42background" cx="10%" cy="10%" r="100%" fx="10%" fy="10%"> 			<stop offset="0%" stop-color="#ffffff" stop-opacity="1" id="_4281E148-2C64-4C12-A94C-409A1A823B42__4281E148-2C64-4C12-A94C-409A1A823B42_18"/> 			<stop id="_4281E148-2C64-4C12-A94C-409A1A823B42fill_el" offset="100%" stop-color="#fafad2" stop-opacity="1"/> 		</radialGradient> 		<radialGradient id="_4281E148-2C64-4C12-A94C-409A1A823B42borderbackground" cx="10%" cy="10%" r="100%" fx="10%" fy="10%"> 			<stop offset="0%" stop-color="#ffffff" stop-opacity="1" id="_4281E148-2C64-4C12-A94C-409A1A823B42__4281E148-2C64-4C12-A94C-409A1A823B42_19"/> 			<stop id="_4281E148-2C64-4C12-A94C-409A1A823B42fill_border" offset="100%" stop-color="#000000" stop-opacity="1" stroke="#000000"/> 		</radialGradient> 	</defs> 	 	<rect id="_4281E148-2C64-4C12-A94C-409A1A823B42text_frame" oryx:anchors="bottom top right left" x="1" y="1" width="94" height="79" rx="10" ry="10" stroke="none" stroke-width="0" fill="none"/> 	<rect id="_4281E148-2C64-4C12-A94C-409A1A823B42bg_frame" oryx:resize="vertical horizontal" x="0" y="0" width="100" height="80" rx="10" ry="10" stroke="#000000" stroke-width="1" fill="url(#_4281E148-2C64-4C12-A94C-409A1A823B42background) #ffffcc"/> 		<text font-size="12" id="_4281E148-2C64-4C12-A94C-409A1A823B42text_name" x="50" y="40" oryx:align="middle center" oryx:fittoelem="text_frame" stroke="black" text-anchor="middle" stroke-width="0pt" letter-spacing="-0.01px" fill="#000000" transform="rotate(0 50 40)" visibility="inherit" oryx:fontSize="12"><tspan x="50" y="40" dy="5" id="ext-gen604">Analisar</tspan></text>     <g id="_4281E148-2C64-4C12-A94C-409A1A823B42manualTask" transform="scale(0.7,0.7) translate(8,8)" display="none">     	<path oryx:anchors="top left" id="_4281E148-2C64-4C12-A94C-409A1A823B42frame" style="opacity:1;fill:none;fill-opacity:1;stroke-width:1" d="M0.5,3.751l4.083-3.25c0,0,11.166,0.083,12.083,0.083s-2.417,2.917-1.5,2.917     s11.667,0,12.584,0c1.166,1.708-0.168,3.167-0.834,3.667s0.875,1.917-1,4.417c-0.75,0.25,0.75,1.875-1.333,3.333     c-1.167,0.583,0.583,1.542-1.25,2.833c-1.167,0-20.833,0.083-20.833,0.083l-2-1.333V3.751z" stroke="#000000"/> 		<path id="_4281E148-2C64-4C12-A94C-409A1A823B42frame2" oryx:anchors="top left" style="opacity:1;fill:none;stroke-width:2" d="M 13.5 7 L 27 7" stroke="#000000"/> 		<path id="_4281E148-2C64-4C12-A94C-409A1A823B42frame3" oryx:anchors="top left" style="opacity:1;fill:none;stroke-width:2" d="M 13.5 11 L 26 11" stroke="#000000"/> 		<path id="_4281E148-2C64-4C12-A94C-409A1A823B42frame4" oryx:anchors="top left" style="opacity:1;fill:none;stroke-width:1.5" d="M 14 14.5 L 25 14.5" stroke="#000000"/> 		<path id="_4281E148-2C64-4C12-A94C-409A1A823B42frame5" oryx:anchors="top left" style="opacity:1;fill:none;stroke-width:1.5" d="M 8.2 3.1 L 15 3.1" stroke="#000000"/> 	</g> 	 	<g id="_4281E148-2C64-4C12-A94C-409A1A823B42businessRuleTask" transform="scale(0.7,0.7) translate(8,8)" display="none"> 		<rect id="_4281E148-2C64-4C12-A94C-409A1A823B42frame6" oryx:anchors="top left" x="0" y="0" width="22" height="4" style="opacity:1;fill:#B3B1B3;fill-opacity:1;" stroke="#000000"/> 		<rect id="_4281E148-2C64-4C12-A94C-409A1A823B42frame7" oryx:anchors="top left" x="0" y="4" style="opacity:1;fill:none;" width="22" height="12" stroke="#000000"/> 		<path id="_4281E148-2C64-4C12-A94C-409A1A823B42frame8" oryx:anchors="top left" style="opacity:1;fill:none;" d="M 0 10 L 22 10" stroke="#000000"/> 		<path id="_4281E148-2C64-4C12-A94C-409A1A823B42frame9" oryx:anchors="top left" style="opacity:1; fill:none;" d="M 7 4 L 7 16" stroke="#000000"/> 	</g> 	 	<g id="_4281E148-2C64-4C12-A94C-409A1A823B42scriptTask" transform="scale(0.7,0.7) translate(8,8)" display="none"> 		<path oryx:anchors="top left" id="_4281E148-2C64-4C12-A94C-409A1A823B42frame10" style="opacity:1;fill:none;" stroke="#000000" d="M6.402,0.5h14.5c0,0-5.833,2.833-5.833,5.583s4.417,6,4.417,9.167    s-4.167,5.083-4.167,5.083H0.235c0,0,5-2.667,5-5s-4.583-6.75-4.583-9.25S6.402,0.5,6.402,0.5z"/> 		<path oryx:anchors="top left" id="_4281E148-2C64-4C12-A94C-409A1A823B42frame11" style="opacity:1;fill:none;stroke-width:1.5" d="M 3.5 4.5 L 13.5 4.5" stroke="#000000"/> 		<path oryx:anchors="top left" id="_4281E148-2C64-4C12-A94C-409A1A823B42frame12" style="opacity:1;fill:none;stroke-width:1.5" d="M 3.8 8.5 L 13.8 8.5" stroke="#000000"/> 		<path oryx:anchors="top left" id="_4281E148-2C64-4C12-A94C-409A1A823B42frame13" style="opacity:1;fill:none;stroke-width:1.5" d="M 6.3 12.5 L 16.3 12.5" stroke="#000000"/> 		<path oryx:anchors="top left" id="_4281E148-2C64-4C12-A94C-409A1A823B42frame14" style="opacity:1;fill:none;stroke-width:1.5" d="M 6.5 16.5 L 16.5 16.5" stroke="#000000"/> 	</g> 	 	<g id="_4281E148-2C64-4C12-A94C-409A1A823B42userTask" transform="scale(0.7,0.7) translate(8,8)" display="inherit"> 		<path id="_4281E148-2C64-4C12-A94C-409A1A823B42frame15" oryx:anchors="top left" style="opacity:1;fill:#F4F6F7" stroke="#000000" d="M0.585,24.167h24.083v-7.833c0,0-2.333-3.917-7.083-5.167h-9.25    c-4.417,1.333-7.833,5.75-7.833,5.75L0.585,24.167z"/> 		<path id="_4281E148-2C64-4C12-A94C-409A1A823B42frame16" oryx:anchors="top left" style="opacity:1;fill:none" d="M 6 20 L 6 24" stroke="#000000"/> 		<path id="_4281E148-2C64-4C12-A94C-409A1A823B42frame17" oryx:anchors="top left" style="opacity:1;fill:none" d="M 20 20 L 20 24" stroke="#000000"/> 		<circle id="_4281E148-2C64-4C12-A94C-409A1A823B42frame18" oryx:anchors="top left" fill="black" cx="13.002" cy="5.916" r="5.417" stroke="#000000"/> 		<path id="_4281E148-2C64-4C12-A94C-409A1A823B42frame19" oryx:anchors="top left" style="opacity:1;fill:#F0EFF0;" stroke="#000000" d="M8.043,7.083c0,0,2.814-2.426,5.376-1.807s4.624-0.693,4.624-0.693    c0.25,1.688,0.042,3.75-1.458,5.584c0,0,1.083,0.75,1.083,1.5s0.125,1.875-1,3s-5.5,1.25-6.75,0S8.668,12.834,8.668,12    s0.583-1.25,1.25-1.917C8.835,9.5,7.419,7.708,8.043,7.083z"/> 	</g> 	 	<g id="_4281E148-2C64-4C12-A94C-409A1A823B42serviceTask" transform="scale(0.7,0.7) translate(8,8)" display="none"> 		<polygon oryx:anchors="top left" id="_4281E148-2C64-4C12-A94C-409A1A823B42frame20" style="opacity:1;fill:#ffffff" stroke="#000000" points="15.392,5.064 17.954,2.502 20.347,4.895 17.786,7.455     18.729,9.732 22.353,9.732 22.353,13.115 18.731,13.115 17.788,15.392 20.351,17.955 17.958,20.347 15.397,17.786 13.12,18.729     13.12,22.353 9.737,22.353 9.737,18.731 7.46,17.788 4.897,20.35 2.506,17.958 5.066,15.397 4.124,13.12 0.5,13.12 0.5,9.737     4.121,9.737 5.065,7.461 2.503,4.898 4.895,2.506 7.455,5.066 9.732,4.125 9.732,0.5 13.116,0.5 13.116,4.121 "/> 		<circle oryx:anchors="top left" id="_4281E148-2C64-4C12-A94C-409A1A823B42frame21" style="opacity:1;fill:none" stroke="#000000" cx="11.427" cy="11.426" r="3.714"/> 		<polygon oryx:anchors="top left" id="_4281E148-2C64-4C12-A94C-409A1A823B42frame22" style="opacity:1;fill:#ffffff" stroke="#000000" points="21.392,11.064 23.954,8.502 26.347,10.895 23.786,13.455     24.729,15.732 28.353,15.732 28.353,19.115 24.731,19.115 23.788,21.392 26.351,23.955 23.958,26.347 21.397,23.786 19.12,24.729     19.12,28.353 15.737,28.353 15.737,24.731 13.46,23.788 10.897,26.35 8.506,23.958 11.066,21.397 10.124,19.12 6.5,19.12     6.5,15.737 10.121,15.737 11.065,13.461 8.503,10.898 10.895,8.506 13.455,11.066 15.732,10.125 15.732,6.5 19.116,6.5     19.116,10.121 "/> 		<circle oryx:anchors="top left" id="_4281E148-2C64-4C12-A94C-409A1A823B42frame23" style="opacity:1;fill:none;" stroke="#000000" cx="17.427" cy="17.426" r="3.714"/> 	</g> 	 	<g id="_4281E148-2C64-4C12-A94C-409A1A823B42sendTask" display="none"> 		<path id="_4281E148-2C64-4C12-A94C-409A1A823B42stframe24" oryx:anchors="left top" stroke="#FFFFFF" fill="black" stroke-width="1" d="M8,11 L8,21 L24,21 L24,11 L16,17z"/> 		<path id="_4281E148-2C64-4C12-A94C-409A1A823B42stframe25" oryx:anchors="left top" stroke="#FFFFFF" fill="black" stroke-width="1" d="M7,10 L16,17 L25 10z"/> 	</g> 	 	<g id="_4281E148-2C64-4C12-A94C-409A1A823B42receiveTask" display="none"> 		<path id="_4281E148-2C64-4C12-A94C-409A1A823B42frame26" oryx:anchors="left top" stroke="#000000" fill="none" stroke-width="1" d="M8,11 L8,21 L24,21 L24,11z M8,11 L16,17 L24,11"/> 	</g> 	 	<g id="_4281E148-2C64-4C12-A94C-409A1A823B42none" display="inherit"/>  	<g id="_4281E148-2C64-4C12-A94C-409A1A823B42sequential" display="none">         <path oryx:anchors="bottom" fill="none" stroke="#000000" stroke-width="2" d="M46,76h10M46,72h10 M46,68h10" id="_4281E148-2C64-4C12-A94C-409A1A823B42__4281E148-2C64-4C12-A94C-409A1A823B42_20"/>     </g>   </g></g><g class="children" style="overflow:hidden"/><g class="edge"/></g><g class="controls"><g class="dockers"/><g class="magnets" transform="translate(360, 140)"><g pointer-events="all" display="none" transform="translate(-7, 12)"><circle cx="8" cy="8" r="4" stroke="none" fill="red" fill-opacity="0.3"/></g><g pointer-events="all" display="none" transform="translate(-7, 32)"><circle cx="8" cy="8" r="4" stroke="none" fill="red" fill-opacity="0.3"/></g><g pointer-events="all" display="none" transform="translate(-7, 52)"><circle cx="8" cy="8" r="4" stroke="none" fill="red" fill-opacity="0.3"/></g><g pointer-events="all" display="none" transform="translate(17, 71)"><circle cx="8" cy="8" r="4" stroke="none" fill="red" fill-opacity="0.3"/></g><g pointer-events="all" display="none" transform="translate(42, 71)"><circle cx="8" cy="8" r="4" stroke="none" fill="red" fill-opacity="0.3"/></g><g pointer-events="all" display="none" transform="translate(67, 71)"><circle cx="8" cy="8" r="4" stroke="none" fill="red" fill-opacity="0.3"/></g><g pointer-events="all" display="none" transform="translate(91, 12)"><circle cx="8" cy="8" r="4" stroke="none" fill="red" fill-opacity="0.3"/></g><g pointer-events="all" display="none" transform="translate(91, 32)"><circle cx="8" cy="8" r="4" stroke="none" fill="red" fill-opacity="0.3"/></g><g pointer-events="all" display="none" transform="translate(91, 52)"><circle cx="8" cy="8" r="4" stroke="none" fill="red" fill-opacity="0.3"/></g><g pointer-events="all" display="none" transform="translate(17, -7)"><circle cx="8" cy="8" r="4" stroke="none" fill="red" fill-opacity="0.3"/></g><g pointer-events="all" display="none" transform="translate(42, -7)"><circle cx="8" cy="8" r="4" stroke="none" fill="red" fill-opacity="0.3"/></g><g pointer-events="all" display="none" transform="translate(67, -7)"><circle cx="8" cy="8" r="4" stroke="none" fill="red" fill-opacity="0.3"/></g><g pointer-events="all" display="none" transform="translate(42, 32)"><circle cx="8" cy="8" r="4" stroke="none" fill="red" fill-opacity="0.3"/></g></g></g></g></g><g class="edge"><g id="_A50DCEF0-0072-481E-8561-68322DE7897B" bpmn2nodeid="_D0923B14-47B3-4635-8D34-1754A8A21B3A"><g class="stencils"><g class="me"><g pointer-events="painted" bpmn2nodeid="_A0EEC923-8B88-4FFF-8F8B-596546138C55"><path id="_A50DCEF0-0072-481E-8561-68322DE7897B_1" d="M150.609375 180L194.15625 180 " stroke="#000000" fill="none" stroke-width="2" stroke-linecap="round" stroke-linejoin="round" marker-start="url(#_A50DCEF0-0072-481E-8561-68322DE7897Bstart)" marker-end="url(#_A50DCEF0-0072-481E-8561-68322DE7897Bend)"/></g><text id="_A50DCEF0-0072-481E-8561-68322DE7897Btext_name" font-size="12" x="164.609375" y="166" oryx:edgePosition="startTop" stroke-width="0pt" letter-spacing="-0.01px" fill="#000000" text-anchor="start" transform="rotate(360 150.609375 180)" visibility="inherit" oryx:fontSize="12"/></g><g class="children" style="overflow:hidden"/><g class="edge"/></g><g class="controls"><g class="dockers"/><g class="magnets"/></g></g><g id="_7C631D4B-4F7E-491F-A32D-DD3C4DD0D056" bpmn2nodeid="_8EDBFE23-A086-41CD-A87E-AEB41CC03022"><g class="stencils"><g class="me"><g pointer-events="painted" bpmn2nodeid="_CAA5B5CE-7601-433A-BC46-36621694CBB9"><path id="_7C631D4B-4F7E-491F-A32D-DD3C4DD0D056_1" d="M295.62890625 180L359.37109375 180 " stroke="#000000" fill="none" stroke-width="2" stroke-linecap="round" stroke-linejoin="round" marker-start="url(#_7C631D4B-4F7E-491F-A32D-DD3C4DD0D056start)" marker-end="url(#_7C631D4B-4F7E-491F-A32D-DD3C4DD0D056end)"/></g><text id="_7C631D4B-4F7E-491F-A32D-DD3C4DD0D056text_name" font-size="12" x="309.62890625" y="166" oryx:edgePosition="startTop" stroke-width="0pt" letter-spacing="-0.01px" fill="#000000" text-anchor="start" transform="rotate(360 295.62890625 180)" visibility="inherit" oryx:fontSize="12"/></g><g class="children" style="overflow:hidden"/><g class="edge"/></g><g class="controls"><g class="dockers"/><g class="magnets"/></g></g><g id="_1F2DDF62-307C-460A-9052-A846FF878BB9" bpmn2nodeid="_D6D67573-0BD4-45C9-B715-0E958CC80A1A"><g class="stencils"><g class="me"><g pointer-events="painted" bpmn2nodeid="_98AAB96A-1E76-4319-9757-86720809B687"><path id="_1F2DDF62-307C-460A-9052-A846FF878BB9_1" d="M460.5 180L494.078125 180 " stroke="#000000" fill="none" stroke-width="2" stroke-linecap="round" stroke-linejoin="round" marker-start="url(#_1F2DDF62-307C-460A-9052-A846FF878BB9start)" marker-end="url(#_1F2DDF62-307C-460A-9052-A846FF878BB9end)"/></g><text id="_1F2DDF62-307C-460A-9052-A846FF878BB9text_name" font-size="12" x="474.5" y="166" oryx:edgePosition="startTop" stroke-width="0pt" letter-spacing="-0.01px" fill="#000000" text-anchor="start" transform="rotate(360 460.5 180)" visibility="inherit" oryx:fontSize="12"/></g><g class="children" style="overflow:hidden"/><g class="edge"/></g><g class="controls"><g class="dockers"/><g class="magnets"/></g></g></g><text id="_A67DA512-12D7-439F-831A-0C1A189E5987" style="stroke-width:1;fill:rgb(177,194,214);font-family:arial;font-weight:bold" font-size="12" onclick="ORYX.Plugins.CanvasTitle.openTextualAnalysis()" onmouseover="ORYX.Plugins.CanvasTitle.addToolTip('_A67DA512-12D7-439F-831A-0C1A189E5987')" transform="translate(10, 20)">Diligencia1 v.1.0 (SIM.Diligencia1)</text></g></g></svg>